<svg width="103" height="49" viewBox="0 0 103 49" fill="none" xmlns="http://www.w3.org/2000/svg">
<path d="M101.285 39.491L101.292 39.1345L101.521 39.1382C101.64 39.1345 101.807 39.149 101.807 39.3074C101.804 39.4766 101.727 39.4946 101.571 39.4946H101.285V39.491ZM101.292 39.7503H101.448L101.793 40.3769H102.174L101.793 39.7251C101.992 39.7143 102.152 39.6063 102.152 39.3326C102.152 38.9941 101.923 38.8861 101.532 38.8861L100.969 38.8789V40.3805L101.292 40.3877V39.7503ZM102.935 39.6315C102.935 38.7492 102.271 38.2451 101.524 38.2451C100.774 38.2451 100.11 38.7528 100.11 39.6315C100.11 40.5101 100.774 41.025 101.524 41.025C102.271 41.025 102.935 40.5101 102.935 39.6315ZM102.54 39.6315C102.54 40.2724 102.072 40.7082 101.528 40.7082V40.701C100.969 40.701 100.52 40.2724 100.52 39.6351C100.52 38.9977 100.969 38.5728 101.528 38.5728C102.068 38.5692 102.54 38.9941 102.54 39.6315Z" fill="#B8B8B8"/>
<path d="M57.5643 30.9061C54.7572 30.7873 51.6816 33.1567 51.8231 35.9691C52.0334 40.2146 55.3012 40.5026 57.6368 40.5603C61.2092 40.3838 61.8185 38.6049 62.1195 38.0036C62.2174 37.7299 61.706 37.0673 61.3071 37.4995C57.4301 41.5541 55.1561 37.3518 55.1815 35.699C55.2214 34.1758 55.7581 31.9648 57.5352 32.1413C57.5352 32.1413 58.7502 31.6299 59.7077 34.6835C60.6362 35.7674 61.0931 34.5863 61.7568 32.7318C62.047 31.9144 60.2989 31.0178 57.5643 30.9061Z" fill="#B8B8B8"/>
<path d="M20.5784 24.7989C20.767 25.6379 22.6058 27.1503 27.3206 26.2213C28.1584 26.0628 28.7967 25.998 30.2256 25.998C30.2256 37.6471 30.2909 44.28 30.2184 44.3088C30.3634 44.262 27.19 49.2889 29.6598 48.5831C30.3235 48.3995 34.643 45.4323 35.3285 44.957C36.0937 44.1936 34.5596 43.747 34.5596 42.6344C34.5487 37.2365 34.5596 34.7951 34.5778 33.9309C34.5995 33.2827 34.9223 33.3439 34.9223 33.3439C34.9078 33.3439 37.8926 33.1207 39.1439 33.4304C39.949 33.6104 41.2836 34.5394 41.0769 34.5034C42.1686 34.6763 41.6645 33.5888 41.2655 31.9072C40.8811 30.2039 40.3552 28.8752 38.6978 30.2759C38.7449 30.3083 37.9905 30.4272 37.9724 30.4272C37.8128 30.5064 34.0809 30.51 34.6612 30.3119C34.6068 30.3372 34.3602 29.4261 34.3638 27.7949C34.3638 25.8612 34.8171 25.6775 38.5055 25.3247C43.0825 25.4399 46.5715 25.5587 48.6243 26.4842C48.9035 26.6066 50.3869 26.567 50.706 26.2717C51.6708 25.3679 51.9899 22.9228 49.3097 22.5699C45.6576 21.6481 40.163 22.3827 36.2497 23.0092C37.4393 22.8292 32.224 24.1003 26.9651 23.6898C23.9114 23.4558 23.9658 22.7716 23.9549 22.7644C22.7 21.0035 20.0054 22.4187 20.5784 24.7989Z" fill="#B8B8B8"/>
<path d="M62.1704 31.7919C61.8875 33.2287 63.4325 32.4113 63.3853 33.1927C64.0236 36.5487 61.2346 40.3117 66.4645 40.5314C70.5119 40.5422 70.9436 37.6614 69.1737 38.342C66.8272 39.8112 66.8526 37.9387 66.8163 37.9351C66.8235 37.6938 66.566 34.9355 66.7474 33.2863C66.7546 33.2791 66.8598 32.9262 67.2152 32.8038C67.4764 32.7029 68.8763 32.7353 69.6488 32.7101C70.0477 31.9575 69.9861 31.223 69.9135 31.223C69.0141 31.1041 67.5235 31.2986 66.8163 31.1077C66.6821 30.2075 66.7075 28.8931 66.7075 27.8489C66.6277 27.8165 66.0873 27.8273 66.0329 27.8057C63.4796 30.4091 62.8159 31.1869 62.1704 31.7919Z" fill="#B8B8B8"/>
<path d="M89.8427 31.3706C89.8427 31.5327 89.8427 31.954 89.7774 32.1196C90.024 32.2961 90.3033 32.3573 90.5028 32.5913C91.1193 33.2971 93.4114 38.1764 94.0316 39.9553C93.999 40.0093 94.0933 40.1641 94.0607 40.2217C89.1428 47.1499 84.8341 45.7888 85.0771 43.423C85.2621 43.0377 84.689 42.2815 83.1477 42.7676C82.2265 43.1853 81.9545 44.0639 82.0923 44.5825C83.4632 49.5085 90.9852 47.4308 95.5658 41.8061C97.0238 40.0417 99.4972 36.6136 100.723 33.0883C100.923 32.4833 101.568 32.1664 101.597 32.1196C101.666 31.8892 101.597 31.4679 101.659 31.2446C97.546 30.9097 96.5813 31.3166 96.5921 31.367C96.6465 31.5831 96.5812 31.8243 96.6574 32.0512C96.7082 32.2241 97.5895 32.6382 97.6185 32.7138C98.1081 33.8913 96.4435 36.3327 96.0518 36.9017C96.3673 37.395 94.7026 35.4325 94.2456 32.5913C94.4741 32.4041 94.9565 32.3861 95.0362 32.116C95.2756 31.2014 94.5974 30.9853 92.4395 31.0934C91.5401 31.1366 90.4665 31.0934 89.8427 31.3706Z" fill="#B8B8B8"/>
<path d="M84.9573 32.955H84.7215C84.7687 30.4883 83.8221 31.2913 82.6688 31.9611C81.8817 32.4004 81.3123 32.6957 80.6124 33.189C80.6704 33.3186 80.6124 33.6319 80.616 33.7868C80.8953 33.9416 81.287 34.0064 81.4647 34.2693C81.8673 34.8923 81.9506 37.3085 81.6968 38.3384C81.5553 38.8857 80.5145 39.2566 80.373 39.6527C80.3114 39.8255 80.4347 40.1676 80.373 40.3441C82.0123 40.751 83.5863 40.4917 85.5593 40.4953C85.6064 40.2252 85.9764 40.5925 85.8023 39.6527C85.7225 39.2422 84.892 39.1522 84.7215 38.702C84.4749 38.0971 84.5619 35.7745 84.7106 35.1083C84.5946 35.6989 85.4541 32.7173 87.369 34.5034L87.6048 34.8671C88.1017 34.9931 88.04 34.9283 88.4535 34.6294C88.3555 33.1962 91.014 30.9132 87.9022 31.2193C86.1976 31.3885 85.7443 32.2024 84.9573 32.955Z" fill="#B8B8B8"/>
<path d="M69.743 35.821C69.743 39.8144 73.7144 41.4996 77.9722 40.369C83.6771 38.6081 80.812 30.434 74.6319 30.9921C71.4259 31.2622 69.714 33.1671 69.743 35.821ZM77.0002 39.0546C73.3771 40.7687 71.5564 32.7422 73.8703 32.2308C76.8878 31.5539 78.9369 38.1364 77.0002 39.0546Z" fill="#B8B8B8"/>
<path d="M41.7989 32.707C41.4979 33.7873 42.4009 33.6648 42.4009 33.6648C44.5154 32.12 45.8863 32.9878 45.9044 32.9446C46.7313 34.0861 46.5137 34.8027 46.4992 34.7415C41.1062 34.5399 41.001 37.3774 40.9901 37.7339C40.9031 40.1933 42.8507 40.6506 44.5988 40.665C45.6941 40.6722 47.0287 40.5858 47.5873 40.1249C48.4903 39.3687 48.4794 40.1897 49.1576 40.3698C53.3865 41.4608 53.3393 38.5513 52.2295 38.843C52.2295 38.8502 51.6892 38.9546 51.4099 38.8034C50.9602 38.5549 50.7172 37.0749 50.4379 36.4123C49.3426 33.8917 49.5203 30.9209 45.6179 30.9497C44.1889 30.8849 41.944 32.1236 41.7989 32.707ZM46.6189 39.0446C43.9169 39.6532 43.6522 36.4087 45.4148 36.0594C47.8847 35.5625 48.2074 38.7097 46.6189 39.0446Z" fill="#B8B8B8"/>
<path d="M18.5727 2.7727C13.3864 1.80045 6.76032 0.911017 2.1253 8.81507C0.790644 11.1017 0.166813 12.8913 0.014488 15.7577C-0.261147 22.0593 3.38379 29.4016 12.0119 30.1866C14.5108 30.4027 17.0168 30.3883 19.0623 29.47C22.2938 27.9865 22.4643 27.025 22.4425 26.971C20.8903 26.2688 20.8793 26.3084 20.7705 26.3336C20.0814 26.5497 19.0769 27.4859 17.0749 27.6696C12.9621 28.0585 10.5539 26.9098 8.07681 24.3171C5.93338 22.0845 5.44743 18.48 5.34951 17.0144C5.29148 8.82228 9.02342 4.22388 13.2631 4.20227C19.037 4.02943 21.8658 9.50645 22.8995 11.0729C24.2813 11.2349 24.8579 10.5723 24.8579 10.5507C24.3175 6.89217 21.6628 1.79685 20.9447 1.2135C20.8105 1.15948 20.4514 1.13788 20.339 1.2135C19.9038 1.49797 18.4784 2.7619 18.5727 2.7727Z" fill="#B8B8B8"/>
<path d="M81.8311 6.73361C81.8892 6.84884 81.8311 7.35297 81.9472 7.42138C82.1213 7.52581 83.0751 7.75267 83.1259 8.32522C83.1186 15.5991 83.0896 18.6131 83.1259 19.0956C82.4876 19.9274 81.8891 19.859 81.8202 20.2659C81.7441 20.6692 82.0705 21.1626 82.1793 21.159C84.5367 21.1878 86.9775 21.1914 87.0428 21.1338C87.4526 20.3163 87.3873 19.8266 86.4697 19.6898C86.1506 19.6466 86.2993 19.128 86.1651 18.9444C86.1325 18.894 86.0599 18.1558 86.0744 17.3924C86.0889 17.5364 86.4589 16.6686 87.0392 16.593C87.8117 16.6974 89.2841 20.734 89.9079 21.1049C90.7638 21.2022 92.7876 21.1626 93.2845 21.0761C93.9155 19.4665 92.6171 20.4748 91.3115 17.8389C89.3023 13.777 89.2225 14.0291 91.2571 13.1433C92.3669 12.6211 92.171 12.0198 91.5436 11.937C86.0128 11.1304 87.1734 12.722 87.1262 12.5959C87.2713 13.0244 88.8743 12.9344 86.4915 14.9041C86.4698 14.8897 86.2231 14.9834 86.2159 14.8393C86.1687 13.4025 86.1687 6.12505 86.1724 4.82511C85.9149 4.43981 85.0372 4.64506 81.8311 6.73361Z" fill="#B8B8B8"/>
<path d="M44.4752 11.7323C43.71 11.6855 43.7607 11.4947 41.6572 11.4767C40.8484 11.4767 38.9843 12.15 39.0024 13.5796C38.9843 14.325 38.9734 14.7175 39.0967 15.0092C39.7386 16.5936 41.4686 16.8097 42.6908 17.2274C44.2431 17.7819 45.3565 17.9332 45.2913 18.7002C45.342 18.2716 45.4182 19.9425 42.4043 19.3735C41.4432 19.1863 40.979 18.9918 39.3433 17.7135L38.647 17.7207C38.9226 18.9054 39.1838 19.4852 40.4821 21.5521L41.1458 21.4765C42.1106 20.2233 42.2302 20.9363 44.1669 21.174C48.8817 21.6673 51.221 16.1615 44.3047 14.7535C42.8323 14.5231 40.9826 13.4896 42.4297 12.9351C44.0473 12.3121 46.5171 14.0297 46.2668 13.9181C48.4139 14.9876 47.7139 13.8389 46.8653 12.4705C45.3819 10.1011 45.4617 11.7936 44.4752 11.7323Z" fill="#B8B8B8"/>
<path d="M64.8252 11.5521C62.0181 11.4333 58.9426 13.7955 59.0767 16.6043C59.2944 20.8534 62.5621 21.145 64.8941 21.1991C68.4737 21.0262 69.0939 19.2509 69.3841 18.646C69.4747 18.3723 68.9779 17.7133 68.5644 18.1311C64.6946 22.2001 62.4207 17.9798 62.4533 16.3342C62.4787 14.8146 63.0263 12.6072 64.7998 12.7765C64.7998 12.7765 66.0148 12.2687 66.9723 15.3187C67.8971 16.4062 68.3541 15.2215 69.0214 13.3742C69.3115 12.5496 67.5562 11.6602 64.8252 11.5521Z" fill="#B8B8B8"/>
<path d="M34.0047 21.1517C36.6885 21.0184 38.4874 19.4376 38.7449 18.9659C38.9698 18.559 38.5599 18.1017 38.0522 18.3357C35.187 20.111 33.526 20.0066 32.2747 17.4931C32.8333 17.1186 37.6315 15.6278 38.1501 15.2245C38.5055 14.9401 37.4284 13.2368 36.6885 12.5706C35.8652 11.8288 34.9368 11.4327 33.1125 11.5336C26.2144 12.243 27.0957 21.4578 34.0047 21.1517ZM34.7627 15.0193C34.6031 15.2605 32.0716 16.2688 31.7162 15.653C31.3608 15.0589 31.3608 13.2656 32.7571 12.9811C33.8234 12.8011 34.7917 14.0182 34.7627 15.0193Z" fill="#B8B8B8"/>
<path d="M54.4053 21.1561C57.0927 21.0192 58.8952 19.4456 59.1527 18.9739C59.3776 18.5598 58.9678 18.1025 58.4709 18.3437C55.6058 20.1154 53.9483 20.0074 52.6825 17.5047C53.2447 17.1194 58.0393 15.6394 58.5579 15.2325C58.9315 14.9481 57.8471 13.2448 57.1036 12.575C56.2767 11.8332 55.3519 11.4371 53.5167 11.538C46.6222 12.2437 47.4999 21.4657 54.4053 21.1561ZM55.1705 15.0201C55.0037 15.2649 52.4795 16.2696 52.1132 15.6574C51.7686 15.0597 51.7577 13.2664 53.1649 12.9819C54.2421 12.8055 55.1923 14.019 55.1705 15.0201Z" fill="#B8B8B8"/>
<path d="M97.7563 21.1668C100.444 21.0264 102.246 19.4491 102.504 18.981C102.725 18.5705 102.319 18.106 101.826 18.3509C98.9459 20.1225 97.2994 20.0217 96.0336 17.5154C96.5994 17.1265 101.39 15.643 101.898 15.2325C102.272 14.9588 101.198 13.2519 100.444 12.5822C99.6278 11.8404 98.6957 11.4407 96.8678 11.5487C89.9805 12.2545 90.8546 21.4729 97.7563 21.1668ZM98.5179 15.0272C98.3656 15.2649 95.8414 16.2731 95.4715 15.6574C95.1233 15.0632 95.1233 13.2699 96.516 12.9891C97.5932 12.8126 98.5542 14.0297 98.5179 15.0272Z" fill="#B8B8B8"/>
<path d="M23.9113 21.1517C26.5951 21.0076 28.3976 19.4376 28.6587 18.9587C28.8764 18.5554 28.4701 18.0945 27.9769 18.3357C25.1081 20.111 23.4507 20.003 22.1886 17.4931C22.7544 17.1114 27.5417 15.6278 28.064 15.2209C28.4267 14.9365 27.3531 13.2368 26.6096 12.5706C25.7827 11.8288 24.8543 11.4327 23.0264 11.5336C16.1283 12.2394 17.0059 21.4578 23.9113 21.1517ZM24.6765 15.0157C24.5133 15.2641 21.9855 16.2616 21.6228 15.653C21.2674 15.0517 21.2674 13.2656 22.6709 12.9811C23.7408 12.8011 24.7056 14.0182 24.6765 15.0157Z" fill="#B8B8B8"/>
<path d="M70.6133 12.9818C70.6133 12.9818 69.8336 14.3357 71.0776 14.1521C71.161 14.0621 75.0017 11.7755 75.1939 15.2648C72.6479 15.4808 69.6812 15.6933 69.7139 18.4912C69.732 19.9244 70.1382 21.0695 73.6562 21.2495C76.9892 20.9146 76.6265 19.7912 77.7871 20.7922C80.4238 21.8653 81.5843 20.6518 81.5771 19.7912C81.5843 19.125 80.344 19.6651 79.8906 19.1862C78.6285 16.7592 78.6938 11.3434 74.4106 11.6422C74.3308 11.6494 72.9599 11.3254 70.6133 12.9818ZM75.5566 16.6979C75.5204 16.7232 77.2431 18.7037 75.437 19.5391C71.9045 19.9352 72.9635 16.7592 73.9645 16.6691C74.9582 16.5827 74.4323 16.6367 75.5566 16.6979Z" fill="#B8B8B8"/>
<path d="M14.5143 11.6202C13.7889 11.5842 12.9838 11.8183 12.0372 12.4521C12.0444 10.2015 12.1061 8.92673 12.0299 6.72656H11.5403C10.387 7.39274 9.18293 8.08412 8.16018 8.88712C8.20733 9.10678 8.11666 9.30483 8.16018 9.60731C8.18919 9.78376 9.16841 10.0178 9.19017 10.3671C9.17204 10.0214 9.2482 17.1729 9.0995 18.9805C9.00521 19.8232 8.2871 19.8664 8.01147 20.1977C8.01147 20.1977 7.92079 21.1735 8.27259 21.1663C9.75957 21.1735 11.2466 21.1663 12.7372 21.1663C13.0672 20.9647 13.0164 20.835 13.0237 20.3345C12.9366 20.2049 12.3273 19.6791 12.2149 19.247C11.9429 18.1127 11.8631 15.8009 12.0118 14.8899C12.0807 14.4722 12.4978 14.0689 12.7408 13.8888C12.8714 13.7952 13.4226 13.8708 13.4553 13.8384C13.5242 13.8204 14.1226 14.6414 14.2205 14.8431C14.8371 16.1178 15.2759 18.5448 15.2469 19.7367C15.1272 24.8789 12.6501 25.347 12.2584 25.8871C12.2947 26.0492 12.2476 26.2976 12.3273 26.3841C12.4434 26.4849 13.0309 26.3337 13.176 26.276C15.4246 25.1814 18.3841 22.7183 18.181 17.7886C18.1773 17.6158 18.1592 17.4393 18.1701 17.2665C18.2245 15.2032 16.8934 11.7391 14.5143 11.6202Z" fill="#B8B8B8"/>
<path d="M31.8066 0.229806C31.8066 0.229806 32.3579 0.179393 32.3906 0.247811C32.6589 0.795153 31.4258 2.1239 31.3642 2.41197C30.9689 3.10695 30.4466 3.11416 30.5445 2.01947C30.5191 1.97986 29.743 2.01587 29.3332 2.01587C29.3695 2.08069 29.2389 6.90954 29.4746 7.21562C30.2616 7.907 29.5073 8.16267 29.5073 8.16267C28.6804 8.2815 26.7473 8.25269 26.4463 8.06544C26.2214 7.32365 26.8633 7.41007 26.9322 6.69349C27.0447 5.50158 26.9685 3.35542 26.9685 1.94025C25.3619 1.7422 24.8904 2.61723 24.6329 2.92691C24.0453 2.95211 23.0552 3.18618 25.409 0.384647C25.4997 0.388248 25.7499 0.200999 25.9421 0.600703C28.6477 0.618707 30.0078 0.618707 31.0341 0.582698C31.2082 0.579097 31.2517 0.438661 31.8066 0.229806Z" fill="#B8B8B8"/>
<path d="M31.6905 2.14239C31.4112 2.68253 32.0749 2.62492 32.1112 2.91659C32.1656 3.46393 32.0277 6.81281 32.0713 7.06847C31.2734 7.5438 31.6469 8.04433 31.6469 8.04433C32.4593 8.04072 34.1857 8.13075 34.2437 8.04433C34.2763 7.46818 34.1458 7.66623 33.9608 7.23051C33.667 6.53553 33.7613 5.2608 33.794 5.04475C34.8349 3.13625 36.0825 9.17142 33.8883 10.3417C33.6489 10.4606 33.1956 11.0223 34.2909 10.781C38.487 8.54486 36.9783 2.03436 33.7215 3.73761C33.7287 0.190684 33.9246 0.583186 31.6905 2.14239Z" fill="#B8B8B8"/>
<path d="M39.9379 8.06548C41.628 7.81341 42.0197 7.19405 42.0197 7.19405C42.4367 6.6251 41.987 6.45946 41.657 6.68992C39.7711 7.93944 39.0856 6.39104 39.0312 6.2506C39.2343 6.18579 40.257 5.87971 41.9435 5.15592C41.8963 4.97947 41.5735 3.51029 40.1301 3.33745C36.1878 2.87293 35.8396 8.27073 39.9379 8.06548ZM40.1301 5.03349C39.6514 5.17032 39.3358 5.34317 38.8317 5.31436C38.567 5.11631 38.7519 4.18367 39.2125 4.13325C39.6659 4.09724 39.9778 4.3313 40.1301 5.03349Z" fill="#B8B8B8"/>
</svg>
