<svg width="102" height="39" viewBox="0 0 102 39" fill="none" xmlns="http://www.w3.org/2000/svg">
<g filter="url(#filter0_d_4101_13227)">
<path fill-rule="evenodd" clip-rule="evenodd" d="M97.9491 14.7499C97.9649 14.9919 97.9799 15.2207 97.9799 15.4644V15.4812V15.498C97.9799 15.7417 97.9649 15.9705 97.9491 16.2125L97.9461 16.2568C97.5404 22.1592 92.5052 26.8025 86.317 26.8663H86.202H86.0228H61.7095C57.956 26.8663 53.6208 28.3167 50.99 30.9624C48.3591 28.3167 44.0206 26.8663 40.2705 26.8663H15.9572H15.7779H15.663C9.47474 26.8193 4.43961 22.1592 4.03383 16.2568C4.03284 16.2417 4.03186 16.2267 4.03088 16.2118C4.01501 15.97 4 15.7415 4 15.498V15.4812V15.4644C4 15.2059 4.01692 14.9474 4.03383 14.7056C4.42609 8.80324 9.47474 4.1431 15.663 4.09609H15.7779H15.9572H40.2705C44.024 4.09609 48.3591 2.64567 50.99 0C53.6208 2.64567 57.9593 4.09609 61.7095 4.09609H86.0228H86.202H86.317C92.5052 4.1431 97.5404 8.80324 97.9461 14.7056L97.9491 14.7499ZM50.9967 28.9444L50.787 28.7833C47.9601 26.6379 44.0307 25.3654 40.2806 25.3654H15.6933C10.3505 25.3184 5.90038 21.2693 5.55885 16.1593L5.55 16.0271C5.5365 15.8278 5.52502 15.6583 5.52502 15.4979V15.4643C5.52502 15.2696 5.52503 15.0614 5.55885 14.8029C5.90038 9.69282 10.3674 5.64374 15.7102 5.59673H40.2806C44.0307 5.59673 47.9634 4.32426 50.787 2.17885L50.9967 2.01769L51.2063 2.17885C54.0333 4.32426 57.9627 5.59673 61.7128 5.59673H86.3C91.626 5.64374 96.0761 9.69282 96.4345 14.8029L96.4434 14.9355C96.4569 15.1346 96.4684 15.304 96.4684 15.4643V15.5113C96.4684 15.706 96.4683 15.9142 96.4345 16.1727C96.093 21.2827 91.626 25.3318 86.2831 25.3788H61.7128C57.9627 25.3788 54.0299 26.6513 51.2063 28.7967L50.9967 28.9444ZM40.2772 24.6536C44.0949 24.6536 48.0716 25.9261 50.9967 28.0547C53.9183 25.9261 57.9153 24.6536 61.7162 24.6536H86.273C91.2439 24.6066 95.3829 20.8496 95.7075 16.1089C95.7244 15.8676 95.7244 15.6731 95.7244 15.4988V15.4979V15.4643V15.4633C95.7244 15.2856 95.7244 15.0945 95.7075 14.8532C95.3829 10.1125 91.2574 6.35552 86.2865 6.30851H61.7162C57.8984 6.30851 53.9217 5.03604 50.9967 2.90741C48.075 5.03604 44.078 6.30851 40.2772 6.30851H15.7069C10.736 6.35552 6.59698 10.1125 6.27235 14.8532C6.25545 15.0949 6.25545 15.2896 6.25545 15.4642V15.4643V15.5113V15.5114C6.25545 15.6893 6.25545 15.8807 6.27235 16.1223C6.59698 20.8631 10.7225 24.6201 15.6933 24.6671H40.2806L40.2772 24.6536ZM22.0879 19.4632C22.1386 19.4128 22.2029 19.349 22.284 19.349C22.3652 19.349 22.4294 19.396 22.4937 19.5203L22.5275 19.5841L22.4801 19.6311C21.7159 20.4704 20.742 21.0513 19.5889 21.34C18.8247 21.5314 18.0774 21.6288 17.3639 21.6288C16.4542 21.6288 15.5615 21.4676 14.7161 21.1621C12.978 20.5309 11.808 19.339 11.223 17.63C11.2101 17.5801 11.1952 17.5307 11.1799 17.4798C11.155 17.397 11.1289 17.3101 11.108 17.2103C11.0995 17.1868 11.0953 17.1667 11.0911 17.1466C11.0869 17.1264 11.0826 17.1063 11.0742 17.0828C10.9761 16.7604 10.7326 15.0817 11.1215 13.6313C11.6727 11.6168 12.9408 10.2302 14.8886 9.53521C16.5455 8.93758 18.2329 8.90737 19.8256 9.43784C20.9787 9.82395 21.6956 10.5324 21.9864 11.5329C22.1961 12.2749 22.1149 13.0169 21.743 13.6145C21.4048 14.1786 20.8367 14.568 20.1367 14.6956L20.1025 14.6996C19.9704 14.7149 19.848 14.7292 19.714 14.7292C18.6928 14.7292 17.8001 14.0678 17.6039 13.1478L17.587 13.1008L17.6344 13.0672C17.6682 13.037 17.702 13.0202 17.7494 13.0202C17.8527 13.0202 17.9445 13.1153 17.9709 13.1427L17.9759 13.1478C18.2532 13.5004 18.6759 13.6951 19.1459 13.6951C19.6498 13.6951 20.1367 13.4366 20.414 13.0337C20.8536 12.4025 20.9652 11.6773 20.7386 11.0494C20.4952 10.388 19.9102 9.88774 19.1155 9.66279C18.6285 9.51842 18.1247 9.45463 17.6378 9.45463C15.6054 9.45463 13.935 10.6465 13.1707 12.6308C12.4403 14.5345 12.4403 16.4213 13.1707 18.2579C13.9011 20.0776 15.2808 21.0446 17.2793 21.1587C19.1324 21.2527 20.7386 20.7055 22.0541 19.4968L22.0879 19.4632L22.0879 19.4632ZM89.455 19.2045V12.6575V10.6733V10.6262C89.455 10.5289 89.455 10.4013 89.3739 10.3207C89.3265 10.2737 89.2454 10.2401 89.1304 10.2401H88.8531H87.6662L87.8623 10.4013C87.8623 10.4013 88.657 11.0459 88.657 13.0302V18.0932C88.657 18.0932 82.2084 11.8517 81.7214 11.385L80.778 10.4651C80.6968 10.3845 80.5345 10.2569 80.3722 10.2401H79.1548L79.3341 10.3845C79.3341 10.3845 79.8853 10.868 79.8853 11.8047V18.3517V20.336V20.383C79.8853 20.4804 79.8853 20.6079 79.9664 20.6885C80.0138 20.7355 80.0949 20.7691 80.2099 20.7691H80.4703H81.6572L81.4611 20.6247C81.4611 20.6247 80.6799 19.9801 80.6799 17.9959V12.916C80.6799 12.916 87.1285 19.1575 87.6155 19.6242L88.5589 20.5442C88.6401 20.6247 88.8024 20.7523 88.9647 20.7691H90.0029L89.8744 20.6247C89.8748 20.6225 89.8678 20.6124 89.8553 20.5943C89.7733 20.4755 89.455 20.0145 89.455 19.2045ZM91.2404 20.6082C90.8989 20.6082 90.6385 20.3497 90.6385 19.9972C90.6385 19.6581 90.8989 19.3861 91.2539 19.3861C91.5955 19.3861 91.8559 19.6614 91.8559 19.9972C91.8592 20.3497 91.5819 20.6082 91.2404 20.6082ZM91.2573 19.2686C90.8515 19.2686 90.51 19.6077 90.51 20.0106C90.51 20.4135 90.8346 20.7358 91.2404 20.7358C91.6462 20.7358 91.9877 20.3967 91.9877 19.9938C91.9877 19.5909 91.6631 19.2686 91.2573 19.2686ZM90.98 19.6547H91.2878C91.3689 19.6547 91.4501 19.6883 91.4839 19.7185C91.5177 19.7487 91.5481 19.8159 91.5481 19.8797C91.5481 19.9938 91.4839 20.0576 91.4027 20.0878L91.565 20.3296H91.3858L91.2404 20.1046H91.1254V20.3296H90.98V19.6547ZM91.2878 19.977C91.3689 19.977 91.4027 19.9434 91.4027 19.8797C91.4027 19.8159 91.3554 19.7823 91.2878 19.7823H91.1424V19.977H91.2878ZM73.5043 20.3494C75.4724 20.3494 77.0786 18.2712 77.0786 15.7061C77.0786 13.1242 75.4893 11.0459 73.5043 11.0459C71.5363 11.0459 69.93 13.1443 69.93 15.7061C69.93 18.2678 71.5363 20.3494 73.5043 20.3494ZM68.2122 15.7699C68.1953 13.0436 70.275 10.8176 73.0512 10.5927C74.8536 10.4483 76.2671 10.915 77.3999 11.9961C78.3095 12.8858 78.8134 14.1113 78.8303 15.4643C78.8472 16.898 78.2791 18.3014 77.2883 19.3019C76.3144 20.2688 74.9178 20.8329 73.457 20.8329C71.8 20.8329 70.275 20.1547 69.2842 18.9628C68.5842 18.1066 68.2291 17.0759 68.2122 15.7699ZM66.8629 16.3174C66.2779 15.7198 65.4494 15.3337 64.4282 15.2061C66.0852 14.5783 66.1967 13.2051 66.0209 12.547C65.5813 10.8851 63.6809 10.7743 62.3181 10.7743H59.3153L59.4133 10.8717C59.4133 10.8717 59.8665 11.3551 59.8665 12.0971V13.9672V19.5943C59.8665 20.1919 59.9307 20.2893 60.4853 20.4639C61.2969 20.7392 62.1253 20.8836 62.9538 20.8836C63.4577 20.8836 63.9615 20.8366 64.4654 20.7224C65.6185 20.4807 66.43 20.0442 67.015 19.3358C67.7725 18.4125 67.7083 17.14 66.8629 16.3174ZM65.7909 18.3823C65.6455 19.4634 64.7663 20.2356 63.647 20.2692H63.3867C62.8997 20.2692 62.5582 20.2222 61.9732 20.0744C61.8751 20.0576 61.5505 19.9468 61.5505 19.5574V11.2544H62.3316C63.5828 11.2544 64.3605 11.6909 64.4586 13.1413C64.5229 13.9303 64.1509 15.0114 62.8659 15.2061C62.8338 15.2061 62.805 15.2103 62.7763 15.2145C62.7476 15.2187 62.7188 15.2229 62.6867 15.2229C62.1355 15.2867 62.0374 15.562 62.0374 15.5788L62.0036 15.6594H62.1017C62.1017 15.6594 62.264 15.6426 62.4737 15.6426H62.7002C63.1872 15.6426 64.3065 15.6426 65.233 16.5457C65.6794 17.0426 65.889 17.7209 65.7909 18.3823ZM54.8765 12.2151C55.6961 14 57.0823 17.0189 58.0134 18.8825C58.0788 19.0123 58.1399 19.1405 58.1993 19.2649L58.1993 19.2649L58.1993 19.265C58.5083 19.9124 58.7678 20.4563 59.3153 20.5914C57.5941 20.9608 56.7825 20.2859 56.3936 19.5909C55.9236 18.7348 55.2405 17.3817 55.2405 17.3817C55.1255 17.1568 55.014 17.093 54.7536 17.093H51.5377L50.1073 20.0442C49.9619 20.3531 49.732 20.6418 49.0996 20.6418H48.4166C48.6127 20.5948 48.8866 20.2691 49.0658 19.8998L53.5497 10.8212C53.5971 10.7239 53.6783 10.5627 53.8744 10.5627C54.0864 10.5627 54.1711 10.7157 54.2338 10.8289L54.2463 10.8515C54.3397 11.0461 54.568 11.5432 54.8765 12.2151ZM53.4483 13.1412L51.8252 16.4483L54.828 16.4316L53.4483 13.1412ZM47.4089 19.1713V13.0439V11.1906V11.1436V11.1435C47.4089 11.0462 47.4089 10.9354 47.3446 10.8549C47.2973 10.8079 47.2161 10.7743 47.118 10.7743H46.8577H45.7519L45.9311 10.9187C45.9311 10.9187 46.6615 11.5297 46.6615 13.3864V18.1271C46.6615 18.1271 40.6187 12.2885 40.1656 11.8386L39.2729 10.9824C39.1917 10.9019 39.0463 10.7877 38.884 10.7743H37.7309L37.8932 10.9187C37.8932 10.9187 38.4139 11.3686 38.4139 12.2415V18.3688V20.2222V20.2692C38.4139 20.3665 38.4139 20.4773 38.4782 20.5445C38.5255 20.5915 38.6067 20.625 38.7048 20.625H38.9482H40.054L39.8748 20.4807C39.8748 20.4807 39.1444 19.8696 39.1444 18.013V13.2857C39.1444 13.2857 45.1872 19.1243 45.6403 19.5742L46.533 20.4303C46.6142 20.5109 46.7596 20.625 46.9219 20.6385H47.8958L47.7808 20.5109C47.7808 20.5089 47.7754 20.5007 47.7658 20.4863C47.6963 20.3819 47.4089 19.9504 47.4089 19.1713ZM36.4932 13.0439V19.1713C36.4932 19.9371 36.7734 20.367 36.8474 20.4807L36.8475 20.4808C36.8591 20.4986 36.8657 20.5086 36.8652 20.5109L36.9802 20.6385H36.0063C35.844 20.625 35.6986 20.5109 35.6174 20.4303L34.7247 19.5742C34.2716 19.1243 28.2287 13.2857 28.2287 13.2857V18.013C28.2287 19.8696 28.9591 20.4807 28.9591 20.4807L29.1384 20.625H28.0326H27.7891C27.6911 20.625 27.6099 20.5915 27.5626 20.5445C27.4983 20.4773 27.4983 20.3665 27.4983 20.2692V20.2222V18.3688V12.2415C27.4983 11.3686 26.9776 10.9187 26.9776 10.9187L26.8152 10.7743H27.9683C28.1307 10.7877 28.2761 10.9019 28.3572 10.9824L29.25 11.8386C29.7031 12.2885 35.7459 18.1271 35.7459 18.1271V13.3864C35.7459 11.5297 35.0155 10.9187 35.0155 10.9187L34.8363 10.7743H35.942H36.2024C36.3005 10.7743 36.3816 10.8079 36.429 10.8549C36.4932 10.9354 36.4932 11.0462 36.4932 11.1436V11.1906V13.0439ZM23.7956 11.8821V20.6383H24.7863H25.4052H25.4863V10.7708H23.1801C23.4709 10.9152 23.7956 11.1737 23.7956 11.8821Z" fill="#B8B8B8"/>
</g>
<defs>
<filter id="filter0_d_4101_13227" x="0" y="0" width="101.98" height="38.9624" filterUnits="userSpaceOnUse" color-interpolation-filters="sRGB">
<feFlood flood-opacity="0" result="BackgroundImageFix"/>
<feColorMatrix in="SourceAlpha" type="matrix" values="0 0 0 0 0 0 0 0 0 0 0 0 0 0 0 0 0 0 127 0" result="hardAlpha"/>
<feOffset dy="4"/>
<feGaussianBlur stdDeviation="2"/>
<feComposite in2="hardAlpha" operator="out"/>
<feColorMatrix type="matrix" values="0 0 0 0 0 0 0 0 0 0 0 0 0 0 0 0 0 0 0.25 0"/>
<feBlend mode="normal" in2="BackgroundImageFix" result="effect1_dropShadow_4101_13227"/>
<feBlend mode="normal" in="SourceGraphic" in2="effect1_dropShadow_4101_13227" result="shape"/>
</filter>
</defs>
</svg>
